<mxfile host="app.diagrams.net" modified="2023-01-08T10:08:38.031Z" agent="5.0 (Macintosh; Intel Mac OS X 10_14_6) AppleWebKit/537.36 (KHTML, like Gecko) Chrome/108.0.0.0 Safari/537.36" version="20.8.1" etag="Yq6iCAf0PchFCOh_llh-" type="github">
  <diagram id="nJoWL5pJA5r9lrxLnbGv" name="第 1 页">
    <mxGraphModel dx="908" dy="2144" grid="1" gridSize="10" guides="1" tooltips="1" connect="1" arrows="1" fold="1" page="1" pageScale="1" pageWidth="827" pageHeight="1169" math="0" shadow="0">
      <root>
        <mxCell id="0" />
        <mxCell id="1" parent="0" />
        <mxCell id="hWmzrPUuPBNw3d8dfc2w-50" value="" style="rounded=1;whiteSpace=wrap;html=1;strokeWidth=2;fillWeight=4;hachureGap=8;hachureAngle=45;fillColor=#b0e3e6;strokeColor=#0e8088;fontSize=15;fontStyle=1" vertex="1" parent="1">
          <mxGeometry x="920" y="240" width="280" height="220" as="geometry" />
        </mxCell>
        <mxCell id="hWmzrPUuPBNw3d8dfc2w-1" value="" style="rounded=1;whiteSpace=wrap;html=1;strokeWidth=2;fillWeight=4;hachureGap=8;hachureAngle=45;fillColor=#b0e3e6;strokeColor=#0e8088;fontSize=15;fontStyle=1" vertex="1" parent="1">
          <mxGeometry x="920" width="280" height="220" as="geometry" />
        </mxCell>
        <mxCell id="hWmzrPUuPBNw3d8dfc2w-2" value="0" style="rounded=0;whiteSpace=wrap;html=1;strokeWidth=2;fillWeight=4;hachureGap=8;hachureAngle=45;fillColor=#dae8fc;strokeColor=#6c8ebf;fontSize=15;fontStyle=1" vertex="1" parent="1">
          <mxGeometry x="1020" y="80" width="80" height="40" as="geometry" />
        </mxCell>
        <mxCell id="hWmzrPUuPBNw3d8dfc2w-4" value="父进程" style="text;strokeColor=none;fillColor=none;html=1;fontSize=15;fontStyle=1;verticalAlign=middle;align=center;rounded=0;" vertex="1" parent="1">
          <mxGeometry x="1110" y="10" width="80" height="40" as="geometry" />
        </mxCell>
        <mxCell id="hWmzrPUuPBNw3d8dfc2w-6" value="1" style="rounded=0;whiteSpace=wrap;html=1;strokeWidth=2;fillWeight=4;hachureGap=8;hachureAngle=45;fillColor=#dae8fc;strokeColor=#6c8ebf;fontSize=15;fontStyle=1" vertex="1" parent="1">
          <mxGeometry x="1020" y="120" width="80" height="40" as="geometry" />
        </mxCell>
        <mxCell id="hWmzrPUuPBNw3d8dfc2w-7" value="2" style="rounded=0;whiteSpace=wrap;html=1;strokeWidth=2;fillWeight=4;hachureGap=8;hachureAngle=45;fillColor=#dae8fc;strokeColor=#6c8ebf;fontSize=15;fontStyle=1" vertex="1" parent="1">
          <mxGeometry x="1020" y="160" width="80" height="40" as="geometry" />
        </mxCell>
        <mxCell id="hWmzrPUuPBNw3d8dfc2w-8" value="0" style="rounded=0;whiteSpace=wrap;html=1;strokeWidth=2;fillWeight=4;hachureGap=8;hachureAngle=45;fillColor=#d5e8d4;strokeColor=#82b366;fontSize=15;fontStyle=1" vertex="1" parent="1">
          <mxGeometry x="1320" width="160" height="40" as="geometry" />
        </mxCell>
        <mxCell id="hWmzrPUuPBNw3d8dfc2w-9" value="1" style="rounded=0;whiteSpace=wrap;html=1;strokeWidth=2;fillWeight=4;hachureGap=8;hachureAngle=45;fillColor=#d5e8d4;strokeColor=#82b366;fontSize=15;fontStyle=1" vertex="1" parent="1">
          <mxGeometry x="1320" y="40" width="160" height="40" as="geometry" />
        </mxCell>
        <mxCell id="hWmzrPUuPBNw3d8dfc2w-10" value="2" style="rounded=0;whiteSpace=wrap;html=1;strokeWidth=2;fillWeight=4;hachureGap=8;hachureAngle=45;fillColor=#fff2cc;strokeColor=#d6b656;fontSize=15;fontStyle=1" vertex="1" parent="1">
          <mxGeometry x="1320" y="80" width="160" height="40" as="geometry" />
        </mxCell>
        <mxCell id="hWmzrPUuPBNw3d8dfc2w-11" value="3" style="rounded=0;whiteSpace=wrap;html=1;strokeWidth=2;fillWeight=4;hachureGap=8;hachureAngle=45;fillColor=#fff2cc;strokeColor=#d6b656;fontSize=15;fontStyle=1" vertex="1" parent="1">
          <mxGeometry x="1320" y="120" width="160" height="40" as="geometry" />
        </mxCell>
        <mxCell id="hWmzrPUuPBNw3d8dfc2w-12" value="4" style="rounded=0;whiteSpace=wrap;html=1;strokeWidth=2;fillWeight=4;hachureGap=8;hachureAngle=45;fillColor=#fff2cc;strokeColor=#d6b656;fontSize=15;fontStyle=1" vertex="1" parent="1">
          <mxGeometry x="1320" y="160" width="160" height="40" as="geometry" />
        </mxCell>
        <mxCell id="hWmzrPUuPBNw3d8dfc2w-13" value="5" style="rounded=0;whiteSpace=wrap;html=1;strokeWidth=2;fillWeight=4;hachureGap=8;hachureAngle=45;fillColor=#d5e8d4;strokeColor=#82b366;fontSize=15;fontStyle=1" vertex="1" parent="1">
          <mxGeometry x="1320" y="200" width="160" height="40" as="geometry" />
        </mxCell>
        <mxCell id="hWmzrPUuPBNw3d8dfc2w-14" value="0" style="rounded=0;whiteSpace=wrap;html=1;strokeWidth=2;fillWeight=4;hachureGap=8;hachureAngle=45;fillColor=#dae8fc;strokeColor=#6c8ebf;fontSize=15;fontStyle=1" vertex="1" parent="1">
          <mxGeometry x="1020" y="320" width="80" height="40" as="geometry" />
        </mxCell>
        <mxCell id="hWmzrPUuPBNw3d8dfc2w-15" value="1" style="rounded=0;whiteSpace=wrap;html=1;strokeWidth=2;fillWeight=4;hachureGap=8;hachureAngle=45;fillColor=#dae8fc;strokeColor=#6c8ebf;fontSize=15;fontStyle=1" vertex="1" parent="1">
          <mxGeometry x="1020" y="360" width="80" height="40" as="geometry" />
        </mxCell>
        <mxCell id="hWmzrPUuPBNw3d8dfc2w-16" value="2" style="rounded=0;whiteSpace=wrap;html=1;strokeWidth=2;fillWeight=4;hachureGap=8;hachureAngle=45;fillColor=#dae8fc;strokeColor=#6c8ebf;fontSize=15;fontStyle=1" vertex="1" parent="1">
          <mxGeometry x="1020" y="400" width="80" height="40" as="geometry" />
        </mxCell>
        <mxCell id="hWmzrPUuPBNw3d8dfc2w-17" value="2" style="rounded=0;whiteSpace=wrap;html=1;strokeWidth=2;fillWeight=4;hachureGap=8;hachureAngle=45;fillColor=#fff2cc;strokeColor=#d6b656;fontSize=15;fontStyle=1" vertex="1" parent="1">
          <mxGeometry x="1100" y="80" width="80" height="40" as="geometry" />
        </mxCell>
        <mxCell id="hWmzrPUuPBNw3d8dfc2w-18" value="3" style="rounded=0;whiteSpace=wrap;html=1;strokeWidth=2;fillWeight=4;hachureGap=8;hachureAngle=45;fillColor=#fff2cc;strokeColor=#d6b656;fontSize=15;fontStyle=1" vertex="1" parent="1">
          <mxGeometry x="1100" y="120" width="80" height="40" as="geometry" />
        </mxCell>
        <mxCell id="hWmzrPUuPBNw3d8dfc2w-19" value="4" style="rounded=0;whiteSpace=wrap;html=1;strokeWidth=2;fillWeight=4;hachureGap=8;hachureAngle=45;fillColor=#fff2cc;strokeColor=#d6b656;fontSize=15;fontStyle=1" vertex="1" parent="1">
          <mxGeometry x="1100" y="160" width="80" height="40" as="geometry" />
        </mxCell>
        <mxCell id="hWmzrPUuPBNw3d8dfc2w-20" value="2" style="rounded=0;whiteSpace=wrap;html=1;strokeWidth=2;fillWeight=4;hachureGap=8;hachureAngle=45;fillColor=#fff2cc;strokeColor=#d6b656;fontSize=15;fontStyle=1" vertex="1" parent="1">
          <mxGeometry x="1100" y="320" width="80" height="40" as="geometry" />
        </mxCell>
        <mxCell id="hWmzrPUuPBNw3d8dfc2w-21" value="3" style="rounded=0;whiteSpace=wrap;html=1;strokeWidth=2;fillWeight=4;hachureGap=8;hachureAngle=45;fillColor=#fff2cc;strokeColor=#d6b656;fontSize=15;fontStyle=1" vertex="1" parent="1">
          <mxGeometry x="1100" y="360" width="80" height="40" as="geometry" />
        </mxCell>
        <mxCell id="hWmzrPUuPBNw3d8dfc2w-22" value="4" style="rounded=0;whiteSpace=wrap;html=1;strokeWidth=2;fillWeight=4;hachureGap=8;hachureAngle=45;fillColor=#fff2cc;strokeColor=#d6b656;fontSize=15;fontStyle=1" vertex="1" parent="1">
          <mxGeometry x="1100" y="400" width="80" height="40" as="geometry" />
        </mxCell>
        <mxCell id="hWmzrPUuPBNw3d8dfc2w-23" value="" style="endArrow=classic;html=1;rounded=0;exitX=1;exitY=0.5;exitDx=0;exitDy=0;entryX=0;entryY=0.5;entryDx=0;entryDy=0;strokeWidth=2;" edge="1" parent="1" source="hWmzrPUuPBNw3d8dfc2w-17" target="hWmzrPUuPBNw3d8dfc2w-10">
          <mxGeometry width="50" height="50" relative="1" as="geometry">
            <mxPoint x="1130" y="290" as="sourcePoint" />
            <mxPoint x="1180" y="240" as="targetPoint" />
          </mxGeometry>
        </mxCell>
        <mxCell id="hWmzrPUuPBNw3d8dfc2w-24" value="6" style="rounded=0;whiteSpace=wrap;html=1;strokeWidth=2;fillWeight=4;hachureGap=8;hachureAngle=45;fillColor=#d5e8d4;strokeColor=#82b366;fontSize=15;fontStyle=1" vertex="1" parent="1">
          <mxGeometry x="1320" y="240" width="160" height="40" as="geometry" />
        </mxCell>
        <mxCell id="hWmzrPUuPBNw3d8dfc2w-25" value="7" style="rounded=0;whiteSpace=wrap;html=1;strokeWidth=2;fillWeight=4;hachureGap=8;hachureAngle=45;fillColor=#d5e8d4;strokeColor=#82b366;fontSize=15;fontStyle=1" vertex="1" parent="1">
          <mxGeometry x="1320" y="280" width="160" height="40" as="geometry" />
        </mxCell>
        <mxCell id="hWmzrPUuPBNw3d8dfc2w-26" value="" style="endArrow=classic;html=1;rounded=0;strokeWidth=2;exitX=1;exitY=0.5;exitDx=0;exitDy=0;entryX=0;entryY=0.5;entryDx=0;entryDy=0;" edge="1" parent="1" source="hWmzrPUuPBNw3d8dfc2w-20" target="hWmzrPUuPBNw3d8dfc2w-10">
          <mxGeometry width="50" height="50" relative="1" as="geometry">
            <mxPoint x="910" y="390" as="sourcePoint" />
            <mxPoint x="960" y="340" as="targetPoint" />
          </mxGeometry>
        </mxCell>
        <mxCell id="hWmzrPUuPBNw3d8dfc2w-51" value="8" style="rounded=0;whiteSpace=wrap;html=1;strokeWidth=2;fillWeight=4;hachureGap=8;hachureAngle=45;fillColor=#d5e8d4;strokeColor=#82b366;fontSize=15;fontStyle=1" vertex="1" parent="1">
          <mxGeometry x="1320" y="320" width="160" height="40" as="geometry" />
        </mxCell>
        <mxCell id="hWmzrPUuPBNw3d8dfc2w-52" value="9" style="rounded=0;whiteSpace=wrap;html=1;strokeWidth=2;fillWeight=4;hachureGap=8;hachureAngle=45;fillColor=#d5e8d4;strokeColor=#82b366;fontSize=15;fontStyle=1" vertex="1" parent="1">
          <mxGeometry x="1320" y="360" width="160" height="40" as="geometry" />
        </mxCell>
        <mxCell id="hWmzrPUuPBNw3d8dfc2w-53" value="10" style="rounded=0;whiteSpace=wrap;html=1;strokeWidth=2;fillWeight=4;hachureGap=8;hachureAngle=45;fillColor=#d5e8d4;strokeColor=#82b366;fontSize=15;fontStyle=1" vertex="1" parent="1">
          <mxGeometry x="1320" y="400" width="160" height="40" as="geometry" />
        </mxCell>
        <mxCell id="hWmzrPUuPBNw3d8dfc2w-55" value="子进程" style="text;strokeColor=none;fillColor=none;html=1;fontSize=15;fontStyle=1;verticalAlign=middle;align=center;rounded=0;" vertex="1" parent="1">
          <mxGeometry x="1110" y="250" width="80" height="40" as="geometry" />
        </mxCell>
        <mxCell id="hWmzrPUuPBNw3d8dfc2w-56" value="页表" style="text;strokeColor=none;fillColor=none;html=1;fontSize=15;fontStyle=1;verticalAlign=middle;align=center;rounded=0;" vertex="1" parent="1">
          <mxGeometry x="1020" y="40" width="80" height="40" as="geometry" />
        </mxCell>
        <mxCell id="hWmzrPUuPBNw3d8dfc2w-57" value="页表" style="text;strokeColor=none;fillColor=none;html=1;fontSize=15;fontStyle=1;verticalAlign=middle;align=center;rounded=0;" vertex="1" parent="1">
          <mxGeometry x="1020" y="280" width="80" height="40" as="geometry" />
        </mxCell>
        <mxCell id="hWmzrPUuPBNw3d8dfc2w-58" value="" style="rounded=1;whiteSpace=wrap;html=1;strokeWidth=2;fillWeight=4;hachureGap=8;hachureAngle=45;fillColor=#b0e3e6;strokeColor=#0e8088;fontSize=15;fontStyle=1" vertex="1" parent="1">
          <mxGeometry x="920" y="760" width="280" height="220" as="geometry" />
        </mxCell>
        <mxCell id="hWmzrPUuPBNw3d8dfc2w-59" value="" style="rounded=1;whiteSpace=wrap;html=1;strokeWidth=2;fillWeight=4;hachureGap=8;hachureAngle=45;fillColor=#b0e3e6;strokeColor=#0e8088;fontSize=15;fontStyle=1" vertex="1" parent="1">
          <mxGeometry x="920" y="520" width="280" height="220" as="geometry" />
        </mxCell>
        <mxCell id="hWmzrPUuPBNw3d8dfc2w-60" value="0" style="rounded=0;whiteSpace=wrap;html=1;strokeWidth=2;fillWeight=4;hachureGap=8;hachureAngle=45;fillColor=#dae8fc;strokeColor=#6c8ebf;fontSize=15;fontStyle=1" vertex="1" parent="1">
          <mxGeometry x="1020" y="600" width="80" height="40" as="geometry" />
        </mxCell>
        <mxCell id="hWmzrPUuPBNw3d8dfc2w-61" value="父进程" style="text;strokeColor=none;fillColor=none;html=1;fontSize=15;fontStyle=1;verticalAlign=middle;align=center;rounded=0;" vertex="1" parent="1">
          <mxGeometry x="1110" y="530" width="80" height="40" as="geometry" />
        </mxCell>
        <mxCell id="hWmzrPUuPBNw3d8dfc2w-62" value="1" style="rounded=0;whiteSpace=wrap;html=1;strokeWidth=2;fillWeight=4;hachureGap=8;hachureAngle=45;fillColor=#dae8fc;strokeColor=#6c8ebf;fontSize=15;fontStyle=1" vertex="1" parent="1">
          <mxGeometry x="1020" y="640" width="80" height="40" as="geometry" />
        </mxCell>
        <mxCell id="hWmzrPUuPBNw3d8dfc2w-63" value="2" style="rounded=0;whiteSpace=wrap;html=1;strokeWidth=2;fillWeight=4;hachureGap=8;hachureAngle=45;fillColor=#dae8fc;strokeColor=#6c8ebf;fontSize=15;fontStyle=1" vertex="1" parent="1">
          <mxGeometry x="1020" y="680" width="80" height="40" as="geometry" />
        </mxCell>
        <mxCell id="hWmzrPUuPBNw3d8dfc2w-64" value="0" style="rounded=0;whiteSpace=wrap;html=1;strokeWidth=2;fillWeight=4;hachureGap=8;hachureAngle=45;fillColor=#d5e8d4;strokeColor=#82b366;fontSize=15;fontStyle=1" vertex="1" parent="1">
          <mxGeometry x="1320" y="520" width="160" height="40" as="geometry" />
        </mxCell>
        <mxCell id="hWmzrPUuPBNw3d8dfc2w-65" value="1" style="rounded=0;whiteSpace=wrap;html=1;strokeWidth=2;fillWeight=4;hachureGap=8;hachureAngle=45;fillColor=#d5e8d4;strokeColor=#82b366;fontSize=15;fontStyle=1" vertex="1" parent="1">
          <mxGeometry x="1320" y="560" width="160" height="40" as="geometry" />
        </mxCell>
        <mxCell id="hWmzrPUuPBNw3d8dfc2w-66" value="2" style="rounded=0;whiteSpace=wrap;html=1;strokeWidth=2;fillWeight=4;hachureGap=8;hachureAngle=45;fillColor=#fff2cc;strokeColor=#d6b656;fontSize=15;fontStyle=1" vertex="1" parent="1">
          <mxGeometry x="1320" y="600" width="160" height="40" as="geometry" />
        </mxCell>
        <mxCell id="hWmzrPUuPBNw3d8dfc2w-67" value="3" style="rounded=0;whiteSpace=wrap;html=1;strokeWidth=2;fillWeight=4;hachureGap=8;hachureAngle=45;fillColor=#fff2cc;strokeColor=#d6b656;fontSize=15;fontStyle=1" vertex="1" parent="1">
          <mxGeometry x="1320" y="640" width="160" height="40" as="geometry" />
        </mxCell>
        <mxCell id="hWmzrPUuPBNw3d8dfc2w-68" value="4" style="rounded=0;whiteSpace=wrap;html=1;strokeWidth=2;fillWeight=4;hachureGap=8;hachureAngle=45;fillColor=#fff2cc;strokeColor=#d6b656;fontSize=15;fontStyle=1" vertex="1" parent="1">
          <mxGeometry x="1320" y="680" width="160" height="40" as="geometry" />
        </mxCell>
        <mxCell id="hWmzrPUuPBNw3d8dfc2w-69" value="5" style="rounded=0;whiteSpace=wrap;html=1;strokeWidth=2;fillWeight=4;hachureGap=8;hachureAngle=45;fillColor=#d5e8d4;strokeColor=#82b366;fontSize=15;fontStyle=1" vertex="1" parent="1">
          <mxGeometry x="1320" y="720" width="160" height="40" as="geometry" />
        </mxCell>
        <mxCell id="hWmzrPUuPBNw3d8dfc2w-70" value="0" style="rounded=0;whiteSpace=wrap;html=1;strokeWidth=2;fillWeight=4;hachureGap=8;hachureAngle=45;fillColor=#dae8fc;strokeColor=#6c8ebf;fontSize=15;fontStyle=1" vertex="1" parent="1">
          <mxGeometry x="1020" y="840" width="80" height="40" as="geometry" />
        </mxCell>
        <mxCell id="hWmzrPUuPBNw3d8dfc2w-71" value="1" style="rounded=0;whiteSpace=wrap;html=1;strokeWidth=2;fillWeight=4;hachureGap=8;hachureAngle=45;fillColor=#dae8fc;strokeColor=#6c8ebf;fontSize=15;fontStyle=1" vertex="1" parent="1">
          <mxGeometry x="1020" y="880" width="80" height="40" as="geometry" />
        </mxCell>
        <mxCell id="hWmzrPUuPBNw3d8dfc2w-72" value="2" style="rounded=0;whiteSpace=wrap;html=1;strokeWidth=2;fillWeight=4;hachureGap=8;hachureAngle=45;fillColor=#dae8fc;strokeColor=#6c8ebf;fontSize=15;fontStyle=1" vertex="1" parent="1">
          <mxGeometry x="1020" y="920" width="80" height="40" as="geometry" />
        </mxCell>
        <mxCell id="hWmzrPUuPBNw3d8dfc2w-73" value="2" style="rounded=0;whiteSpace=wrap;html=1;strokeWidth=2;fillWeight=4;hachureGap=8;hachureAngle=45;fillColor=#fff2cc;strokeColor=#d6b656;fontSize=15;fontStyle=1" vertex="1" parent="1">
          <mxGeometry x="1100" y="600" width="80" height="40" as="geometry" />
        </mxCell>
        <mxCell id="hWmzrPUuPBNw3d8dfc2w-74" value="3" style="rounded=0;whiteSpace=wrap;html=1;strokeWidth=2;fillWeight=4;hachureGap=8;hachureAngle=45;fillColor=#fff2cc;strokeColor=#d6b656;fontSize=15;fontStyle=1" vertex="1" parent="1">
          <mxGeometry x="1100" y="640" width="80" height="40" as="geometry" />
        </mxCell>
        <mxCell id="hWmzrPUuPBNw3d8dfc2w-75" value="7" style="rounded=0;whiteSpace=wrap;html=1;strokeWidth=2;fillWeight=4;hachureGap=8;hachureAngle=45;fillColor=#f8cecc;strokeColor=#b85450;fontSize=15;fontStyle=1" vertex="1" parent="1">
          <mxGeometry x="1100" y="680" width="80" height="40" as="geometry" />
        </mxCell>
        <mxCell id="hWmzrPUuPBNw3d8dfc2w-76" value="2" style="rounded=0;whiteSpace=wrap;html=1;strokeWidth=2;fillWeight=4;hachureGap=8;hachureAngle=45;fillColor=#fff2cc;strokeColor=#d6b656;fontSize=15;fontStyle=1" vertex="1" parent="1">
          <mxGeometry x="1100" y="840" width="80" height="40" as="geometry" />
        </mxCell>
        <mxCell id="hWmzrPUuPBNw3d8dfc2w-77" value="3" style="rounded=0;whiteSpace=wrap;html=1;strokeWidth=2;fillWeight=4;hachureGap=8;hachureAngle=45;fillColor=#fff2cc;strokeColor=#d6b656;fontSize=15;fontStyle=1" vertex="1" parent="1">
          <mxGeometry x="1100" y="880" width="80" height="40" as="geometry" />
        </mxCell>
        <mxCell id="hWmzrPUuPBNw3d8dfc2w-78" value="4" style="rounded=0;whiteSpace=wrap;html=1;strokeWidth=2;fillWeight=4;hachureGap=8;hachureAngle=45;fillColor=#fff2cc;strokeColor=#d6b656;fontSize=15;fontStyle=1" vertex="1" parent="1">
          <mxGeometry x="1100" y="920" width="80" height="40" as="geometry" />
        </mxCell>
        <mxCell id="hWmzrPUuPBNw3d8dfc2w-79" value="" style="endArrow=classic;html=1;rounded=0;exitX=1;exitY=0.5;exitDx=0;exitDy=0;entryX=0;entryY=0.5;entryDx=0;entryDy=0;strokeWidth=2;" edge="1" parent="1" source="hWmzrPUuPBNw3d8dfc2w-73" target="hWmzrPUuPBNw3d8dfc2w-66">
          <mxGeometry width="50" height="50" relative="1" as="geometry">
            <mxPoint x="1130" y="810" as="sourcePoint" />
            <mxPoint x="1180" y="760" as="targetPoint" />
          </mxGeometry>
        </mxCell>
        <mxCell id="hWmzrPUuPBNw3d8dfc2w-80" value="6" style="rounded=0;whiteSpace=wrap;html=1;strokeWidth=2;fillWeight=4;hachureGap=8;hachureAngle=45;fillColor=#d5e8d4;strokeColor=#82b366;fontSize=15;fontStyle=1" vertex="1" parent="1">
          <mxGeometry x="1320" y="760" width="160" height="40" as="geometry" />
        </mxCell>
        <mxCell id="hWmzrPUuPBNw3d8dfc2w-81" value="7" style="rounded=0;whiteSpace=wrap;html=1;strokeWidth=2;fillWeight=4;hachureGap=8;hachureAngle=45;fillColor=#f8cecc;strokeColor=#b85450;fontSize=15;fontStyle=1" vertex="1" parent="1">
          <mxGeometry x="1320" y="800" width="160" height="40" as="geometry" />
        </mxCell>
        <mxCell id="hWmzrPUuPBNw3d8dfc2w-82" value="" style="endArrow=classic;html=1;rounded=0;strokeWidth=2;exitX=1;exitY=0.5;exitDx=0;exitDy=0;entryX=0;entryY=0.5;entryDx=0;entryDy=0;" edge="1" parent="1" source="hWmzrPUuPBNw3d8dfc2w-76" target="hWmzrPUuPBNw3d8dfc2w-66">
          <mxGeometry width="50" height="50" relative="1" as="geometry">
            <mxPoint x="910" y="910" as="sourcePoint" />
            <mxPoint x="960" y="860" as="targetPoint" />
          </mxGeometry>
        </mxCell>
        <mxCell id="hWmzrPUuPBNw3d8dfc2w-83" value="8" style="rounded=0;whiteSpace=wrap;html=1;strokeWidth=2;fillWeight=4;hachureGap=8;hachureAngle=45;fillColor=#d5e8d4;strokeColor=#82b366;fontSize=15;fontStyle=1" vertex="1" parent="1">
          <mxGeometry x="1320" y="840" width="160" height="40" as="geometry" />
        </mxCell>
        <mxCell id="hWmzrPUuPBNw3d8dfc2w-84" value="9" style="rounded=0;whiteSpace=wrap;html=1;strokeWidth=2;fillWeight=4;hachureGap=8;hachureAngle=45;fillColor=#d5e8d4;strokeColor=#82b366;fontSize=15;fontStyle=1" vertex="1" parent="1">
          <mxGeometry x="1320" y="880" width="160" height="40" as="geometry" />
        </mxCell>
        <mxCell id="hWmzrPUuPBNw3d8dfc2w-85" value="10" style="rounded=0;whiteSpace=wrap;html=1;strokeWidth=2;fillWeight=4;hachureGap=8;hachureAngle=45;fillColor=#d5e8d4;strokeColor=#82b366;fontSize=15;fontStyle=1" vertex="1" parent="1">
          <mxGeometry x="1320" y="920" width="160" height="40" as="geometry" />
        </mxCell>
        <mxCell id="hWmzrPUuPBNw3d8dfc2w-86" value="子进程" style="text;strokeColor=none;fillColor=none;html=1;fontSize=15;fontStyle=1;verticalAlign=middle;align=center;rounded=0;" vertex="1" parent="1">
          <mxGeometry x="1110" y="770" width="80" height="40" as="geometry" />
        </mxCell>
        <mxCell id="hWmzrPUuPBNw3d8dfc2w-87" value="页表" style="text;strokeColor=none;fillColor=none;html=1;fontSize=15;fontStyle=1;verticalAlign=middle;align=center;rounded=0;" vertex="1" parent="1">
          <mxGeometry x="1020" y="560" width="80" height="40" as="geometry" />
        </mxCell>
        <mxCell id="hWmzrPUuPBNw3d8dfc2w-88" value="页表" style="text;strokeColor=none;fillColor=none;html=1;fontSize=15;fontStyle=1;verticalAlign=middle;align=center;rounded=0;" vertex="1" parent="1">
          <mxGeometry x="1020" y="800" width="80" height="40" as="geometry" />
        </mxCell>
        <mxCell id="hWmzrPUuPBNw3d8dfc2w-89" value="" style="endArrow=classic;html=1;rounded=0;strokeWidth=2;exitX=1;exitY=0.5;exitDx=0;exitDy=0;entryX=0;entryY=0.5;entryDx=0;entryDy=0;" edge="1" parent="1" source="hWmzrPUuPBNw3d8dfc2w-75" target="hWmzrPUuPBNw3d8dfc2w-81">
          <mxGeometry width="50" height="50" relative="1" as="geometry">
            <mxPoint x="1860" y="810" as="sourcePoint" />
            <mxPoint x="1910" y="760" as="targetPoint" />
          </mxGeometry>
        </mxCell>
        <mxCell id="hWmzrPUuPBNw3d8dfc2w-90" value="" style="shape=flexArrow;endArrow=classic;html=1;rounded=0;strokeWidth=2;sketch=1;curveFitting=1;jiggle=2;fillColor=#f8cecc;strokeColor=#b85450;gradientColor=none;fillStyle=auto;" edge="1" parent="1">
          <mxGeometry width="50" height="50" relative="1" as="geometry">
            <mxPoint x="890" y="700" as="sourcePoint" />
            <mxPoint x="990" y="700" as="targetPoint" />
          </mxGeometry>
        </mxCell>
        <mxCell id="hWmzrPUuPBNw3d8dfc2w-91" value="修改" style="text;strokeColor=none;fillColor=none;html=1;fontSize=15;fontStyle=1;verticalAlign=middle;align=center;rounded=0;" vertex="1" parent="1">
          <mxGeometry x="840" y="680" width="40" height="40" as="geometry" />
        </mxCell>
      </root>
    </mxGraphModel>
  </diagram>
</mxfile>
